# xmcd CD database file
# Copyright (C) 1993-1998 Ti Kan
#
# Track frame offsets:
#	183
#	13025
#	32595
#	49865
#	66223
#	83720
#	96738
#	112398
#	128480
#	144635
#	161190
#	175200
#	194368
#	210890
#	224530
#	241420
#
# Disc length: 3477 seconds
#
# Revision: 1
# Processed by: cddbd v1.4b41PL1 Copyright (c) Steve Scherf et al.
# Submitted via: CDValet v3.31 - Copyright (c) 1997 Greg Leichner
#
DISCID=ed0d9310
DTITLE=Kenny Rogers - Special Collection
DYEAR=1900
DGENRE=
TTITLE0=Ruby don't take your love to town
TTITLE1=Coward of the county
TTITLE2=We've got tonight (with Sheena Easton)
TTITLE3=Love will turn you around
TTITLE4=Lady
TTITLE5=Love or something like it 
TTITLE6=I don't need you
TTITLE7=The gambler
TTITLE8=Lucille
TTITLE9=Don't fall in love with a dreamer (with Kim Carnes)
TTITLE10=Daytime friends
TTITLE11=She believes in me
TTITLE12=You decorated my life
TTITLE13=When two fools collide (with Dottie West)
TTITLE14=Desperado
TTITLE15=Something's burning
EXTD=
EXTT0=
EXTT1=
EXTT2=
EXTT3=
EXTT4=
EXTT5=
EXTT6=
EXTT7=
EXTT8=
EXTT9=
EXTT10=
EXTT11=
EXTT12=
EXTT13=
EXTT14=
EXTT15=
PLAYORDER=
